<svg xmlns="http://www.w3.org/2000/svg" viewBox="0 0 790 300" width="790" height="300" role="img" aria-label="Timeline of artificial intelligence from 1950 to 2026, marking the Turing Test in 1950, the Dartmouth Conference in 1956, the first AI winter from 1974 to 1980, the expert systems boom in 1980, the second AI winter from 1987 to 1993, Deep Blue in 1997, AlexNet in 2012, the Transformer in 2017, ChatGPT in 2022, and reasoning models and agents in 2025 to 2026.">
  <style>
    .ttl{font:600 17px -apple-system,BlinkMacSystemFont,"Segoe UI",Roboto,Helvetica,Arial,sans-serif;fill:#111418}
    .sub{font:400 12.5px -apple-system,BlinkMacSystemFont,"Segoe UI",Roboto,Helvetica,Arial,sans-serif;fill:#6b7280}
    .yr{font:700 11px -apple-system,BlinkMacSystemFont,"Segoe UI",Roboto,Helvetica,Arial,sans-serif;fill:#111418}
    .ev{font:400 10.5px -apple-system,BlinkMacSystemFont,"Segoe UI",Roboto,Helvetica,Arial,sans-serif;fill:#3d444e}
    .win{font:700 10.5px -apple-system,BlinkMacSystemFont,"Segoe UI",Roboto,Helvetica,Arial,sans-serif;fill:#4e7ba6}
    .lg{font:400 11.5px -apple-system,BlinkMacSystemFont,"Segoe UI",Roboto,Helvetica,Arial,sans-serif;fill:#6b7280}
  </style>
  <rect width="790" height="300" fill="#ffffff"/>
  <text x="24" y="32" class="ttl">The Evolution of Artificial Intelligence, 1950 - 2026</text>
  <text x="24" y="52" class="sub">Progress has moved in cycles: breakthroughs, two funding winters, then the deep-learning era.</text>

  <!-- winter bands -->
  <rect x="150" y="130" width="86" height="34" rx="5" fill="#e4ecf3"/>
  <rect x="300" y="130" width="86" height="34" rx="5" fill="#e4ecf3"/>
  <text x="193" y="152" text-anchor="middle" class="win">AI WINTER</text>
  <text x="343" y="152" text-anchor="middle" class="win">AI WINTER</text>

  <!-- spine -->
  <line x1="40" y1="147" x2="750" y2="147" stroke="#33475b" stroke-width="2"/>

  <!-- nodes -->
  <g fill="#5a6b7b">
    <circle cx="56" cy="147" r="6"/>
    <circle cx="112" cy="147" r="6"/>
    <circle cx="262" cy="147" r="6"/>
    <circle cx="424" cy="147" r="6"/>
  </g>
  <g fill="#c79a3f">
    <circle cx="510" cy="147" r="6"/>
    <circle cx="580" cy="147" r="6"/>
    <circle cx="650" cy="147" r="6"/>
    <circle cx="720" cy="147" r="6"/>
  </g>

  <!-- labels above -->
  <text x="56" y="104" text-anchor="middle" class="yr">1950</text>
  <text x="56" y="120" text-anchor="middle" class="ev">Turing Test</text>
  <text x="262" y="104" text-anchor="middle" class="yr">1980</text>
  <text x="262" y="120" text-anchor="middle" class="ev">Expert systems</text>
  <text x="510" y="104" text-anchor="middle" class="yr">2012</text>
  <text x="510" y="120" text-anchor="middle" class="ev">AlexNet</text>
  <text x="650" y="104" text-anchor="middle" class="yr">2022</text>
  <text x="650" y="120" text-anchor="middle" class="ev">ChatGPT</text>

  <!-- labels below -->
  <text x="112" y="188" text-anchor="middle" class="yr">1956</text>
  <text x="112" y="204" text-anchor="middle" class="ev">Dartmouth</text>
  <text x="424" y="188" text-anchor="middle" class="yr">1997</text>
  <text x="424" y="204" text-anchor="middle" class="ev">Deep Blue</text>
  <text x="580" y="188" text-anchor="middle" class="yr">2017</text>
  <text x="580" y="204" text-anchor="middle" class="ev">Transformer</text>
  <text x="716" y="188" text-anchor="middle" class="yr">2025-26</text>
  <text x="716" y="204" text-anchor="middle" class="ev">Reasoning, agents</text>

  <!-- legend -->
  <line x1="24" y1="238" x2="750" y2="238" stroke="#e7e9ec" stroke-width="1"/>
  <circle cx="34" cy="262" r="5" fill="#5a6b7b"/>
  <text x="46" y="266" class="lg">Early milestones</text>
  <rect x="168" y="257" width="10" height="10" rx="2" fill="#e4ecf3" stroke="#7d98b3"/>
  <text x="186" y="266" class="lg">AI winter (funding collapse)</text>
  <circle cx="384" cy="262" r="5" fill="#c79a3f"/>
  <text x="396" y="266" class="lg">Deep-learning era</text>
  <text x="24" y="290" class="lg">Full interactive version available in Lucidchart.</text>
</svg>
